<svg width="49" height="45" viewBox="0 0 49 45" fill="none" xmlns="http://www.w3.org/2000/svg">
<path d="M44.72 12.11L26.9 1.82001C26.1688 1.39785 25.3393 1.1756 24.495 1.1756C23.6507 1.1756 22.8212 1.39785 22.09 1.82001L4.27999 12.11C3.39252 12.6236 2.65562 13.3613 2.14313 14.2494C1.63064 15.1375 1.36057 16.1447 1.35999 17.17V27.17C1.36057 28.1954 1.63064 29.2025 2.14313 30.0906C2.65562 30.9787 3.39252 31.7165 4.27999 32.23L22.09 42.49C22.8212 42.9122 23.6507 43.1344 24.495 43.1344C25.3393 43.1344 26.1688 42.9122 26.9 42.49L44.72 32.2C45.6075 31.6865 46.3443 30.9487 46.8568 30.0606C47.3693 29.1725 47.6394 28.1654 47.64 27.14V17.14C47.6342 16.1198 47.3616 15.1188 46.8494 14.2364C46.3372 13.3541 45.6031 12.621 44.72 12.11V12.11Z" stroke="white" stroke-width="2" stroke-miterlimit="10"/>
<path d="M17.35 24L21.48 26.38C22.3693 26.8934 23.3781 27.1637 24.405 27.1637C25.4319 27.1637 26.4407 26.8934 27.33 26.38L31.42 24" stroke="white" stroke-width="2" stroke-miterlimit="10"/>
<path d="M1.94 14.64L21.48 26.39C22.3675 26.9036 23.1044 27.6413 23.6169 28.5294C24.1293 29.4175 24.3994 30.4247 24.4 31.45V33.17" stroke="white" stroke-width="2" stroke-miterlimit="10"/>
<path d="M47.06 15.1L27.33 26.39C26.4425 26.9036 25.7056 27.6413 25.1931 28.5294C24.6806 29.4175 24.4106 30.4247 24.41 31.45V43.13" stroke="white" stroke-width="2" stroke-miterlimit="10"/>
<path d="M35.72 21.59L13.17 6.97" stroke="white" stroke-width="2" stroke-miterlimit="10"/>
<path d="M35.72 21.59V37.4" stroke="white" stroke-width="2" stroke-miterlimit="10"/>
</svg>
